# xmcd
#
# Track frame offsets: 
#        150
#        20512
#        30837
#        50912
#        64107
#        78357
#        90537
#        110742
#        126817
#        144657
#        153490
#        160700
#        175270
#        186830
#        201800
#        218010
#        237282
#        244062
#        262600
#
# Disc length: 3637 seconds
#
# Revision: 1
# Processed by: cddbd v1.5.2PL0 Copyright (c) Steve Scherf et al.
# Submitted via: ExactAudioCopy v1.0b3
#
DISCID=fc0e3313
DTITLE=Various Artist - O Brother, Where Art Thou? [Film] [008817006925]
DYEAR=2000
DGENRE=Soundtrack
TTITLE0=Carter, James and The Prisoners - Po Lazarus
TTITLE1=McClintock, Harry - Big Rock Candy Mountain
TTITLE2=Blake, Norman - You Are My Sunshine
TTITLE3=Krauss, Alison - Down To The River To Pray
TTITLE4=Soggy Bottom Boys, The feat. Dan Tyminski - I Am A Man Of Cons
TTITLE4=tant Sorrow (radio station version)
TTITLE5=King, Chris Thomas - Hard Time Killing Floor Blues
TTITLE6=Blake, Norman - I Am A Man Of Constant Sorrow (instrumental)
TTITLE7=Whites, The - Keep On The Sunny Side
TTITLE8=Welch, Gillian and Alison Krauss - I'll Fly Away
TTITLE9=Welch, Gillian with Alison Krauss and Emmylou Harris - Didn't 
TTITLE9=Leave Nobody But The Baby
TTITLE10=Peasall Sisters, The (Sarah, Hannah and Leah Peasall) - In The 
TTITLE10=Highways
TTITLE11=Cox Family, The - I Am Weary (Let Me Rest)
TTITLE12=Hartford, John - I Am A Man Of Constant Sorrow (instrumental)
TTITLE13=Stanley, Ralph - O Death
TTITLE14=Soggy Bottom Boys, The feat. Tim Blake Nelson - In The Jailho
TTITLE14=use Now
TTITLE15=Soggy Bottom Boys, The feat. Dan Tyminski - I Am A Man Of Con
TTITLE15=stant Sorrow (with band)
TTITLE16=Hartford, John - Indian War Whoop
TTITLE17=Fairfield Four - Lonesome Valley
TTITLE18=Stanley Brothers, The - Angel Band
EXTD=
EXTT0=
EXTT1=
EXTT2=
EXTT3=
EXTT4=
EXTT5=
EXTT6=
EXTT7=
EXTT8=
EXTT9=
EXTT10=
EXTT11=
EXTT12=
EXTT13=
EXTT14=
EXTT15=
EXTT16=
EXTT17=
EXTT18=
PLAYORDER=
